<svg width="76" height="79" viewBox="0 0 76 79" fill="none" xmlns="http://www.w3.org/2000/svg">
<g id="Github">
<path id="Icon" d="M28.4999 62.5417C12.6666 67.4792 12.6666 54.3125 6.33325 52.6667M50.6666 72.4167V59.6779C50.7854 58.1083 50.5814 56.5304 50.0681 55.0491C49.5549 53.5679 48.7442 52.2171 47.6899 51.0867C57.6333 49.9346 68.0833 46.0175 68.0833 28.045C68.0824 23.4493 66.3818 19.0298 63.3333 15.7013C64.7768 11.6805 64.6747 7.23624 63.0483 3.29167C63.0483 3.29167 59.3116 2.13959 50.6666 8.16334C43.4086 6.11862 35.7579 6.11862 28.4999 8.16334C19.8549 2.13959 16.1183 3.29167 16.1183 3.29167C14.4918 7.23624 14.3897 11.6805 15.8333 15.7013C12.762 19.0545 11.0596 23.5139 11.0833 28.1438C11.0833 45.9846 21.5333 49.9017 31.4766 51.1854C30.4347 52.3045 29.6313 53.639 29.1184 55.1022C28.6055 56.5654 28.3948 58.1245 28.4999 59.6779V72.4167" stroke="#1E1E1E" stroke-width="4" stroke-linecap="round" stroke-linejoin="round"/>
</g>
</svg>
