<svg width="76" height="79" viewBox="0 0 76 79" fill="none" xmlns="http://www.w3.org/2000/svg">
<g id="Linkedin">
<g id="Icon">
<path d="M50.6666 26.3333C55.7057 26.3333 60.5384 28.4141 64.1016 32.118C67.6648 35.8218 69.6666 40.8453 69.6666 46.0833V69.125H56.9999V46.0833C56.9999 44.3373 56.3327 42.6628 55.1449 41.4282C53.9572 40.1936 52.3463 39.5 50.6666 39.5C48.9869 39.5 47.376 40.1936 46.1882 41.4282C45.0005 42.6628 44.3333 44.3373 44.3333 46.0833V69.125H31.6666V46.0833C31.6666 40.8453 33.6684 35.8218 37.2316 32.118C40.7947 28.4141 45.6275 26.3333 50.6666 26.3333Z" stroke="#1E1E1E" stroke-width="4" stroke-linecap="round" stroke-linejoin="round"/>
<path d="M18.9999 29.625H6.33325V69.125H18.9999V29.625Z" stroke="#1E1E1E" stroke-width="4" stroke-linecap="round" stroke-linejoin="round"/>
<path d="M12.6666 19.75C16.1644 19.75 18.9999 16.8025 18.9999 13.1667C18.9999 9.53079 16.1644 6.58333 12.6666 6.58333C9.16878 6.58333 6.33325 9.53079 6.33325 13.1667C6.33325 16.8025 9.16878 19.75 12.6666 19.75Z" stroke="#1E1E1E" stroke-width="4" stroke-linecap="round" stroke-linejoin="round"/>
</g>
</g>
</svg>
